# xmcd
#
# Track frame offsets:
#	150
#	13870
#	28835
#	45742
#	57695
#	67907
#	85000
#	96337
#	103410
#	115245
#	125867
#	134832
#	143612
#	152725
#	164332
#	176957
#	190515
#	205280
#	214740
#	223587
#	230255
#	241667
#	250822
#	261125
#	271335
#	283872
#	294970
#	306217
#	316397
#	327467
#	340540
#
# Disc length: 4710 seconds
#
# Revision: 1
# Processed by: cddbd v1.4PL0 Copyright (c) Steve Scherf et al.
# Submitted via: audiograbber 1.80
#
DISCID=de12641f
DTITLE=dick curless - a tomstone every mile disc 4
DYEAR=1900
DGENRE=
TTITLE0=a tomstone every mile (1) 1965
TTITLE1=heart talk (1) 1965
TTITLE2=streets of laredo (2) 1965
TTITLE3=king of the road 1965
TTITLE4=uncle tom 1965
TTITLE5=china nights (4) 1965
TTITLE6=six times a day 1965
TTITLE7=cupid's arrow (2) 1965
TTITLE8=down by the old river 1965
TTITLE9=teardrops in my heart 1965
TTITLE10=nine pound hammer (3) 1965
TTITLE11=sunny side of the mountain 1965
TTITLE12='tater raisin'man 1965
TTITLE13=the friend that makes it four 1965
TTITLE14=mama's hands 1996
TTITLE15=mom and dad's waltz 1996
TTITLE16=daddy and home 1996
TTITLE17=i'm going home 1996
TTITLE18=buckaroo 1996
TTITLE19=little terry 1996
TTITLE20=please don't make my go 1966
TTITLE21=you, you, only you (& kay adams) 1966
TTITLE22=terrible tangled web (kay adams) 1966
TTITLE23=a devil like me needs an angel like you (kay adams) 1966
TTITLE24=no fool like an old fool (kay adams) 1966
TTITLE25=old standby (kay adams) 1966
TTITLE26=too late (kay adams) 1966
TTITLE27=i can't stop (my lovin' you) (kay adams) 1966
TTITLE28=for ever and ever (kay adams) 1966
TTITLE29=congratulations, you're absolutely right (kay adams) 1966
TTITLE30=heart talk (2) (kay adams) 1966
EXTD=
EXTT0=
EXTT1=
EXTT2=
EXTT3=
EXTT4=
EXTT5=
EXTT6=
EXTT7=
EXTT8=
EXTT9=
EXTT10=
EXTT11=
EXTT12=
EXTT13=
EXTT14=
EXTT15=
EXTT16=
EXTT17=
EXTT18=
EXTT19=
EXTT20=
EXTT21=
EXTT22=
EXTT23=
EXTT24=
EXTT25=
EXTT26=
EXTT27=
EXTT28=
EXTT29=
EXTT30=
PLAYORDER=
